<?xml version="1.0" encoding="UTF-8" standalone="no"?>
<svg
   xmlns:dc="http://purl.org/dc/elements/1.1/"
   xmlns:cc="http://creativecommons.org/ns#"
   xmlns:rdf="http://www.w3.org/1999/02/22-rdf-syntax-ns#"
   xmlns:svg="http://www.w3.org/2000/svg"
   xmlns="http://www.w3.org/2000/svg"
   viewBox="0 0 502.00 100.00"
   height="100%"
   width="100%"
   id="svg2"
   version="1.1">
  <metadata
     id="metadata7">
    <rdf:RDF>
      <cc:Work
         rdf:about="">
        <dc:format>image/svg+xml</dc:format>
        <dc:type
           rdf:resource="http://purl.org/dc/dcmitype/StillImage" />
        <dc:title></dc:title>
      </cc:Work>
    </rdf:RDF>
  </metadata>
  <svg
     version="1.1"
     id="svg3407"
     x="13.40%"
     y="17.67%">
    <g
       id="g3409"
       stroke="none"
       stroke-width="1"
       fill-rule="evenodd"
       type="MSPage"
       transform="scale(3.0485619990570485)"
       fill="#000000">
      <g
         id="g3411"
         type="MSLayerGroup">
        <g
           id="g3413"
           type="MSShapeGroup">
          <g
             id="g3415">
            <path
               d="M18.0205355,17.7001083 C15.8375936,19.8531453 12.6735141,21 9.94880581,21 C6.12995073,21 2.69159865,19.1113744 0.0889082165,15.9706025 C-0.116327928,15.7235978 0.0655393031,15.3870055 0.312161615,15.578006 C3.1200882,17.7621669 6.59251251,19.0772232 10.1775893,19.0772232 C12.5973421,19.0772232 15.2564034,18.408201 17.7033605,17.0179364 C18.072625,16.8084885 18.3826645,17.344974 18.0205355,17.7001083"
               id="path3417" 
               fill="#FF9900"/>
            <path
               d="M19.2496138,16.3784711 C18.9033645,15.9727011 16.9612157,16.1863688 16.0881456,16.2816746 C15.8241916,16.3108924 15.7817937,16.1004048 16.0208525,15.9472597 C17.5704405,14.9519654 20.1097472,15.2385783 20.4054452,15.5724963 C20.7027739,15.9076069 20.3271722,18.2354925 18.874447,19.3461675 C18.6516951,19.5173005 18.439597,19.425473 18.5380905,19.1997802 C18.8650977,18.4552225 19.5965154,16.7842411 19.2496138,16.3784711"
               id="path3419"
               fill="#FF9900"/>
            <path
               d="M14.9183645,15.2944706 C14.7291152,15.4566817 14.4559166,15.4672362 14.2454983,15.3577113 C13.2961629,14.6084259 13.1284461,14.261251 12.6083058,13.5473493 C11.042979,15.066337 9.93455785,15.5217391 7.90660145,15.5217391 C5.50487092,15.5217391 3.63636364,14.1115843 3.63636364,11.2887656 C3.63636364,9.08373326 4.89160514,7.58542207 6.6784345,6.85084385 C8.2262265,6.20277819 10.388102,6.08486156 12.0416482,5.90976012 L12.0416482,5.55713489 C12.0416482,4.90950179 12.0957065,4.14542278 11.6958572,3.58534041 C11.3486125,3.08728755 10.681561,2.88095507 10.0940069,2.88095507 C9.00648229,2.88095507 8.03906686,3.41214225 7.80166486,4.51128444 C7.75251275,4.7567206 7.56453543,4.99878277 7.30541927,5.01124058 L4.54190736,4.72557607 C4.3087755,4.67695601 4.0475697,4.49709638 4.11561949,4.15865921 C4.75187139,0.964182585 7.78058669,0 10.4944014,0 C11.8819266,0 13.696103,0.35219267 14.789079,1.35297007 C16.1767859,2.58707187 16.0450473,4.23383863 16.0450473,6.02655209 L16.0450473,10.2582279 C16.0450473,11.5314334 16.6008932,12.0892664 17.1210335,12.7749651 C17.3050132,13.0219584 17.3438988,13.3169663 17.1124023,13.4967394 C16.5289367,13.9615715 15.4932898,14.8178729 14.9259054,15.3003535 L14.9183645,15.2944706 Z M12.1816051,8.78803298 C12.1816051,9.81572532 12.2100293,10.6702186 11.6098116,11.5833964 C11.1248483,12.3268174 10.351652,12.7826087 9.49542198,12.7826087 C8.32185346,12.7826087 7.63636329,12.0114826 7.63636329,10.8712907 C7.63636329,8.62558019 9.97220853,8.2173913 12.1816051,8.2173913 L12.1816051,8.78803298 Z"
               id="path3421" />
          </g>
        </g>
      </g>
    </g>
  </svg>
  <svg
     version="1.1"
     id="svg3423"
     x="29.97%"
     y="33.00%">
    <svg
       id="svg3425"
       width="377.86px"
       height="34.00px"
       viewBox="0 0 490.86 24.00"
       version="1.1">
      <g
         id="g3427"
         stroke="none"
         stroke-width="1"
         fill="none"
         fill-rule="evenodd"
         type="MSPage">
        <g
           id="g3429"
           type="MSArtboardGroup"
           transform="translate(0, -32.586206896551726) scale(0.7862068965517242)"
           fill="#000000">
          <path
             d="M4.332,32.302 L24.111,32.302 C27.7590182,32.302 30.684989,33.1379916 32.889,34.81 C35.093011,36.4820084 36.195,39.0089831 36.195,42.391 C36.195,44.4430103 35.691505,46.2004927 34.6845,47.6635 C33.677495,49.1265073 32.2430093,50.256996 30.381,51.055 L30.381,51.169 C32.8890125,51.7010027 34.7889935,52.8884908 36.081,54.7315 C37.3730065,56.5745092 38.019,58.8829861 38.019,61.657 C38.019,63.253008 37.7340028,64.7444931 37.164,66.1315 C36.5939972,67.5185069 35.7010061,68.715495 34.485,69.7225 C33.2689939,70.729505 31.7110095,71.5274971 29.811,72.1165 C27.9109905,72.7055029 25.6500131,73 23.028,73 L4.332,73 L4.332,32.302 Z M11.457,49.345 L23.085,49.345 C24.7950086,49.345 26.2199943,48.8605048 27.36,47.8915 C28.5000057,46.9224952 29.07,45.5260091 29.07,43.702 C29.07,41.6499897 28.5570051,40.2060042 27.531,39.37 C26.5049949,38.5339958 25.0230097,38.116 23.085,38.116 L11.457,38.116 L11.457,49.345 Z M11.457,67.186 L24.054,67.186 C26.2200108,67.186 27.901494,66.6255056 29.0985,65.5045 C30.295506,64.3834944 30.894,62.7970103 30.894,60.745 C30.894,58.7309899 30.295506,57.1825054 29.0985,56.0995 C27.901494,55.0164946 26.2200108,54.475 24.054,54.475 L11.457,54.475 L11.457,67.186 Z M48.621,59.947 C48.621,61.0870057 48.7824984,62.1889947 49.1055,63.253 C49.4285016,64.3170053 49.9129968,65.247996 50.559,66.046 C51.2050032,66.844004 52.0219951,67.4804976 53.01,67.9555 C53.9980049,68.4305024 55.1759932,68.668 56.544,68.668 C58.4440095,68.668 59.9734942,68.2595041 61.1325,67.4425 C62.2915058,66.6254959 63.1559972,65.4000082 63.726,63.766 L69.882,63.766 C69.5399983,65.362008 68.9510042,66.7869937 68.115,68.041 C67.2789958,69.2950063 66.2720059,70.3494957 65.094,71.2045 C63.9159941,72.0595043 62.5955073,72.7054978 61.1325,73.1425 C59.6694927,73.5795022 58.140008,73.798 56.544,73.798 C54.2259884,73.798 52.1740089,73.4180038 50.388,72.658 C48.6019911,71.8979962 47.0915062,70.8340068 45.8565,69.466 C44.6214938,68.0979932 43.6905031,66.4640095 43.0635,64.564 C42.4364969,62.6639905 42.123,60.5740114 42.123,58.294 C42.123,56.2039895 42.4554967,54.2185094 43.1205,52.3375 C43.7855033,50.4564906 44.7354938,48.8035071 45.9705,47.3785 C47.2055062,45.9534929 48.6969913,44.8230042 50.445,43.987 C52.1930087,43.1509958 54.168989,42.733 56.373,42.733 C58.6910116,42.733 60.7714908,43.2174952 62.6145,44.1865 C64.4575092,45.1555048 65.9869939,46.437992 67.203,48.034 C68.4190061,49.630008 69.3024972,51.4634896 69.8535,53.5345 C70.4045028,55.6055104 70.5470013,57.742989 70.281,59.947 L48.621,59.947 Z M63.783,55.672 C63.7069996,54.6459949 63.4885018,53.6580047 63.1275,52.708 C62.7664982,51.7579953 62.2725031,50.9315035 61.6455,50.2285 C61.0184969,49.5254965 60.2585045,48.9555022 59.3655,48.5185 C58.4724955,48.0814978 57.4750055,47.863 56.373,47.863 C55.2329943,47.863 54.1975047,48.062498 53.2665,48.4615 C52.3354953,48.860502 51.5375033,49.4114965 50.8725,50.1145 C50.2074967,50.8175035 49.675502,51.6439952 49.2765,52.594 C48.877498,53.5440047 48.6590002,54.5699945 48.621,55.672 L63.783,55.672 Z M74.214,43.531 L98.154,43.531 L98.154,48.091 L81.282,67.87 L99.009,67.87 L99.009,73 L73.074,73 L73.074,68.44 L89.376,48.661 L74.214,48.661 L74.214,43.531 Z M128.421,66.445 C128.421,67.243004 128.525499,67.8129983 128.7345,68.155 C128.943501,68.4970017 129.351997,68.668 129.96,68.668 L130.644,68.668 C130.910001,68.668 131.213998,68.6300004 131.556,68.554 L131.556,73.057 C131.327999,73.1330004 131.033502,73.2184995 130.6725,73.3135 C130.311498,73.4085005 129.941002,73.4939996 129.561,73.57 C129.180998,73.6460004 128.801002,73.7029998 128.421,73.741 C128.040998,73.7790002 127.718001,73.798 127.452,73.798 C126.121993,73.798 125.020004,73.5320027 124.146,73 C123.271996,72.4679973 122.702001,71.5370066 122.436,70.207 C121.143994,71.4610063 119.557509,72.3729972 117.6765,72.943 C115.795491,73.5130028 113.981009,73.798 112.233,73.798 C110.902993,73.798 109.630006,73.6175018 108.414,73.2565 C107.197994,72.8954982 106.124505,72.3635035 105.1935,71.6605 C104.262495,70.9574965 103.521503,70.0645054 102.9705,68.9815 C102.419497,67.8984946 102.144,66.6350072 102.144,65.191 C102.144,63.3669909 102.476497,61.8850057 103.1415,60.745 C103.806503,59.6049943 104.680495,58.7120032 105.7635,58.066 C106.846505,57.4199968 108.062493,56.9545014 109.4115,56.6695 C110.760507,56.3844986 112.118993,56.1660008 113.487,56.014 C114.665006,55.7859989 115.785995,55.6245005 116.85,55.5295 C117.914005,55.4344995 118.854496,55.2730011 119.6715,55.045 C120.488504,54.8169989 121.134498,54.4655024 121.6095,53.9905 C122.084502,53.5154976 122.322,52.8030047 122.322,51.853 C122.322,51.0169958 122.122502,50.3330027 121.7235,49.801 C121.324498,49.2689973 120.830503,48.8605014 120.2415,48.5755 C119.652497,48.2904986 118.997004,48.1005005 118.275,48.0055 C117.552996,47.9104995 116.869003,47.863 116.223,47.863 C114.398991,47.863 112.898006,48.2429962 111.72,49.003 C110.541994,49.7630038 109.877001,50.940992 109.725,52.537 L103.227,52.537 C103.341001,50.6369905 103.796996,49.0600063 104.595,47.806 C105.393004,46.5519937 106.409494,45.5450038 107.6445,44.785 C108.879506,44.0249962 110.275992,43.4930015 111.834,43.189 C113.392008,42.8849985 114.987992,42.733 116.622,42.733 C118.066007,42.733 119.490993,42.8849985 120.897,43.189 C122.303007,43.4930015 123.566494,43.9869966 124.6875,44.671 C125.808506,45.3550034 126.710997,46.2384946 127.395,47.3215 C128.079003,48.4045054 128.421,49.7249922 128.421,51.283 L128.421,66.445 Z M121.923,58.237 C120.934995,58.8830032 119.719007,59.2724993 118.275,59.4055 C116.830993,59.5385007 115.387007,59.7379987 113.943,60.004 C113.258997,60.1180006 112.594003,60.279499 111.948,60.4885 C111.301997,60.697501 110.732002,60.9824982 110.238,61.3435 C109.743998,61.7045018 109.354501,62.1794971 109.0695,62.7685 C108.784499,63.3575029 108.642,64.0699958 108.642,64.906 C108.642,65.6280036 108.850998,66.2359975 109.269,66.73 C109.687002,67.2240025 110.190497,67.6134986 110.7795,67.8985 C111.368503,68.1835014 112.014496,68.3829994 112.7175,68.497 C113.420504,68.6110006 114.056997,68.668 114.627,68.668 C115.349004,68.668 116.127996,68.5730009 116.964,68.383 C117.800004,68.192999 118.588496,67.8700023 119.3295,67.414 C120.070504,66.9579977 120.687998,66.3785035 121.182,65.6755 C121.676002,64.9724965 121.923,64.1080051 121.923,63.082 L121.923,58.237 Z M135.432,32.302 L141.93,32.302 L141.93,47.407 L142.044,47.407 C142.842004,46.0769933 144.029492,44.9655045 145.6065,44.0725 C147.183508,43.1794955 148.94099,42.733 150.879,42.733 C154.109016,42.733 156.654991,43.5689916 158.517,45.241 C160.379009,46.9130084 161.31,49.4209833 161.31,52.765 L161.31,73 L154.812,73 L154.812,54.475 C154.736,52.1569884 154.242005,50.4755052 153.33,49.4305 C152.417995,48.3854948 150.99301,47.863 149.055,47.863 C147.952994,47.863 146.965004,48.062498 146.091,48.4615 C145.216996,48.860502 144.476003,49.4114965 143.868,50.1145 C143.259997,50.8175035 142.785002,51.6439952 142.443,52.594 C142.100998,53.5440047 141.93,54.5509947 141.93,55.615 L141.93,73 L135.432,73 L135.432,32.302 Z M168.321,32.302 L174.819,32.302 L174.819,73 L168.321,73 L168.321,32.302 Z M186.96,59.947 C186.96,61.0870057 187.121498,62.1889947 187.4445,63.253 C187.767502,64.3170053 188.251997,65.247996 188.898,66.046 C189.544003,66.844004 190.360995,67.4804976 191.349,67.9555 C192.337005,68.4305024 193.514993,68.668 194.883,68.668 C196.783009,68.668 198.312494,68.2595041 199.4715,67.4425 C200.630506,66.6254959 201.494997,65.4000082 202.065,63.766 L208.221,63.766 C207.878998,65.362008 207.290004,66.7869937 206.454,68.041 C205.617996,69.2950063 204.611006,70.3494957 203.433,71.2045 C202.254994,72.0595043 200.934507,72.7054978 199.4715,73.1425 C198.008493,73.5795022 196.479008,73.798 194.883,73.798 C192.564988,73.798 190.513009,73.4180038 188.727,72.658 C186.940991,71.8979962 185.430506,70.8340068 184.1955,69.466 C182.960494,68.0979932 182.029503,66.4640095 181.4025,64.564 C180.775497,62.6639905 180.462,60.5740114 180.462,58.294 C180.462,56.2039895 180.794497,54.2185094 181.4595,52.3375 C182.124503,50.4564906 183.074494,48.8035071 184.3095,47.3785 C185.544506,45.9534929 187.035991,44.8230042 188.784,43.987 C190.532009,43.1509958 192.507989,42.733 194.712,42.733 C197.030012,42.733 199.110491,43.2174952 200.9535,44.1865 C202.796509,45.1555048 204.325994,46.437992 205.542,48.034 C206.758006,49.630008 207.641497,51.4634896 208.1925,53.5345 C208.743503,55.6055104 208.886001,57.742989 208.62,59.947 L186.96,59.947 Z M202.122,55.672 C202.046,54.6459949 201.827502,53.6580047 201.4665,52.708 C201.105498,51.7579953 200.611503,50.9315035 199.9845,50.2285 C199.357497,49.5254965 198.597504,48.9555022 197.7045,48.5185 C196.811496,48.0814978 195.814006,47.863 194.712,47.863 C193.571994,47.863 192.536505,48.062498 191.6055,48.4615 C190.674495,48.860502 189.876503,49.4114965 189.2115,50.1145 C188.546497,50.8175035 188.014502,51.6439952 187.6155,52.594 C187.216498,53.5440047 186.998,54.5699945 186.96,55.672 L202.122,55.672 Z M213.579,43.531 L219.735,43.531 L219.735,47.863 L219.849,47.977 C220.837005,46.3429918 222.128992,45.0605047 223.725,44.1295 C225.321008,43.1984953 227.08799,42.733 229.026,42.733 C232.256016,42.733 234.801991,43.5689916 236.664,45.241 C238.526009,46.9130084 239.457,49.4209833 239.457,52.765 L239.457,73 L232.959,73 L232.959,54.475 C232.883,52.1569884 232.389005,50.4755052 231.477,49.4305 C230.564995,48.3854948 229.14001,47.863 227.202,47.863 C226.099994,47.863 225.112004,48.062498 224.238,48.4615 C223.363996,48.860502 222.623003,49.4114965 222.015,50.1145 C221.406997,50.8175035 220.932002,51.6439952 220.59,52.594 C220.247998,53.5440047 220.077,54.5509947 220.077,55.615 L220.077,73 L213.579,73 L213.579,43.531 Z M262.143,43.531 L268.299,43.531 L268.299,47.635 L268.47,47.635 C268.964002,46.9129964 269.495997,46.248003 270.066,45.64 C270.636003,45.031997 271.272496,44.5190021 271.9755,44.101 C272.678504,43.6829979 273.485995,43.3505012 274.398,43.1035 C275.310005,42.8564988 276.354994,42.733 277.533,42.733 C279.319009,42.733 280.981492,43.131996 282.5205,43.93 C284.059508,44.728004 285.151997,45.9629916 285.798,47.635 C286.900006,46.1149924 288.172993,44.9180044 289.617,44.044 C291.061007,43.1699956 292.865989,42.733 295.032,42.733 C298.148016,42.733 300.570491,43.4929924 302.2995,45.013 C304.028509,46.5330076 304.893,49.0789821 304.893,52.651 L304.893,73 L298.395,73 L298.395,55.786 C298.395,54.6079941 298.357,53.5345048 298.281,52.5655 C298.205,51.5964952 297.986502,50.7605035 297.6255,50.0575 C297.264498,49.3544965 296.723004,48.8130019 296.001,48.433 C295.278996,48.0529981 294.291006,47.863 293.037,47.863 C290.832989,47.863 289.237005,48.5469932 288.249,49.915 C287.260995,51.2830068 286.767,53.2209875 286.767,55.729 L286.767,73 L280.269,73 L280.269,54.076 C280.269,52.0239897 279.898504,50.4755052 279.1575,49.4305 C278.416496,48.3854948 277.05801,47.863 275.082,47.863 C274.245996,47.863 273.438504,48.0339983 272.6595,48.376 C271.880496,48.7180017 271.196503,49.2119968 270.6075,49.858 C270.018497,50.5040032 269.543502,51.3019952 269.1825,52.252 C268.821498,53.2020048 268.641,54.2849939 268.641,55.501 L268.641,73 L262.143,73 L262.143,43.531 Z M311.904,32.302 L318.402,32.302 L318.402,38.458 L311.904,38.458 L311.904,32.302 Z M311.904,43.531 L318.402,43.531 L318.402,73 L311.904,73 L311.904,43.531 Z M322.506,43.531 L327.408,43.531 L327.408,34.696 L333.906,34.696 L333.906,43.531 L339.777,43.531 L339.777,48.376 L333.906,48.376 L333.906,64.108 C333.906,64.7920034 333.9345,65.3809975 333.9915,65.875 C334.0485,66.3690025 334.181499,66.7869983 334.3905,67.129 C334.599501,67.4710017 334.912998,67.7274991 335.331,67.8985 C335.749002,68.0695009 336.318996,68.155 337.041,68.155 C337.497002,68.155 337.952998,68.1455001 338.409,68.1265 C338.865002,68.1074999 339.320998,68.0410006 339.777,67.927 L339.777,72.943 C339.054996,73.0190004 338.352003,73.0949996 337.668,73.171 C336.983997,73.2470004 336.281004,73.285 335.559,73.285 C333.848991,73.285 332.471505,73.1235016 331.4265,72.8005 C330.381495,72.4774984 329.564503,72.0025031 328.9755,71.3755 C328.386497,70.7484969 327.987501,69.9600047 327.7785,69.01 C327.569499,68.0599953 327.446,66.9770061 327.408,65.761 L327.408,48.376 L322.506,48.376 L322.506,43.531 Z M372.096,32.302 L379.677,32.302 L395.352,73 L387.714,73 L383.895,62.227 L367.65,62.227 L363.831,73 L356.478,73 L372.096,32.302 Z M369.588,56.812 L382.014,56.812 L375.915,39.313 L375.744,39.313 L369.588,56.812 Z M398.316,43.531 L404.472,43.531 L404.472,47.635 L404.643,47.635 C405.137002,46.9129964 405.668997,46.248003 406.239,45.64 C406.809003,45.031997 407.445496,44.5190021 408.1485,44.101 C408.851504,43.6829979 409.658995,43.3505012 410.571,43.1035 C411.483005,42.8564988 412.527994,42.733 413.706,42.733 C415.492009,42.733 417.154492,43.131996 418.6935,43.93 C420.232508,44.728004 421.324997,45.9629916 421.971,47.635 C423.073006,46.1149924 424.345993,44.9180044 425.79,44.044 C427.234007,43.1699956 429.038989,42.733 431.205,42.733 C434.321016,42.733 436.743491,43.4929924 438.4725,45.013 C440.201509,46.5330076 441.066,49.0789821 441.066,52.651 L441.066,73 L434.568,73 L434.568,55.786 C434.568,54.6079941 434.53,53.5345048 434.454,52.5655 C434.378,51.5964952 434.159502,50.7605035 433.7985,50.0575 C433.437498,49.3544965 432.896004,48.8130019 432.174,48.433 C431.451996,48.0529981 430.464006,47.863 429.21,47.863 C427.005989,47.863 425.410005,48.5469932 424.422,49.915 C423.433995,51.2830068 422.94,53.2209875 422.94,55.729 L422.94,73 L416.442,73 L416.442,54.076 C416.442,52.0239897 416.071504,50.4755052 415.3305,49.4305 C414.589496,48.3854948 413.23101,47.863 411.255,47.863 C410.418996,47.863 409.611504,48.0339983 408.8325,48.376 C408.053496,48.7180017 407.369503,49.2119968 406.7805,49.858 C406.191497,50.5040032 405.716502,51.3019952 405.3555,52.252 C404.994498,53.2020048 404.814,54.2849939 404.814,55.501 L404.814,73 L398.316,73 L398.316,43.531 Z M472.587,66.445 C472.587,67.243004 472.691499,67.8129983 472.9005,68.155 C473.109501,68.4970017 473.517997,68.668 474.126,68.668 L474.81,68.668 C475.076001,68.668 475.379998,68.6300004 475.722,68.554 L475.722,73.057 C475.493999,73.1330004 475.199502,73.2184995 474.8385,73.3135 C474.477498,73.4085005 474.107002,73.4939996 473.727,73.57 C473.346998,73.6460004 472.967002,73.7029998 472.587,73.741 C472.206998,73.7790002 471.884001,73.798 471.618,73.798 C470.287993,73.798 469.186004,73.5320027 468.312,73 C467.437996,72.4679973 466.868001,71.5370066 466.602,70.207 C465.309994,71.4610063 463.723509,72.3729972 461.8425,72.943 C459.961491,73.5130028 458.147009,73.798 456.399,73.798 C455.068993,73.798 453.796006,73.6175018 452.58,73.2565 C451.363994,72.8954982 450.290505,72.3635035 449.3595,71.6605 C448.428495,70.9574965 447.687503,70.0645054 447.1365,68.9815 C446.585497,67.8984946 446.31,66.6350072 446.31,65.191 C446.31,63.3669909 446.642497,61.8850057 447.3075,60.745 C447.972503,59.6049943 448.846495,58.7120032 449.9295,58.066 C451.012505,57.4199968 452.228493,56.9545014 453.5775,56.6695 C454.926507,56.3844986 456.284993,56.1660008 457.653,56.014 C458.831006,55.7859989 459.951995,55.6245005 461.016,55.5295 C462.080005,55.4344995 463.020496,55.2730011 463.8375,55.045 C464.654504,54.8169989 465.300498,54.4655024 465.7755,53.9905 C466.250502,53.5154976 466.488,52.8030047 466.488,51.853 C466.488,51.0169958 466.288502,50.3330027 465.8895,49.801 C465.490498,49.2689973 464.996503,48.8605014 464.4075,48.5755 C463.818497,48.2904986 463.163004,48.1005005 462.441,48.0055 C461.718996,47.9104995 461.035003,47.863 460.389,47.863 C458.564991,47.863 457.064006,48.2429962 455.886,49.003 C454.707994,49.7630038 454.043001,50.940992 453.891,52.537 L447.393,52.537 C447.507001,50.6369905 447.962996,49.0600063 448.761,47.806 C449.559004,46.5519937 450.575494,45.5450038 451.8105,44.785 C453.045506,44.0249962 454.441992,43.4930015 456,43.189 C457.558008,42.8849985 459.153992,42.733 460.788,42.733 C462.232007,42.733 463.656993,42.8849985 465.063,43.189 C466.469007,43.4930015 467.732494,43.9869966 468.8535,44.671 C469.974506,45.3550034 470.876997,46.2384946 471.561,47.3215 C472.245003,48.4045054 472.587,49.7249922 472.587,51.283 L472.587,66.445 Z M466.089,58.237 C465.100995,58.8830032 463.885007,59.2724993 462.441,59.4055 C460.996993,59.5385007 459.553007,59.7379987 458.109,60.004 C457.424997,60.1180006 456.760003,60.279499 456.114,60.4885 C455.467997,60.697501 454.898002,60.9824982 454.404,61.3435 C453.909998,61.7045018 453.520501,62.1794971 453.2355,62.7685 C452.950499,63.3575029 452.808,64.0699958 452.808,64.906 C452.808,65.6280036 453.016998,66.2359975 453.435,66.73 C453.853002,67.2240025 454.356497,67.6134986 454.9455,67.8985 C455.534503,68.1835014 456.180496,68.3829994 456.8835,68.497 C457.586504,68.6110006 458.222997,68.668 458.793,68.668 C459.515004,68.668 460.293996,68.5730009 461.13,68.383 C461.966004,68.192999 462.754496,67.8700023 463.4955,67.414 C464.236504,66.9579977 464.853998,66.3785035 465.348,65.6755 C465.842002,64.9724965 466.089,64.1080051 466.089,63.082 L466.089,58.237 Z M478.572,43.531 L502.512,43.531 L502.512,48.091 L485.64,67.87 L503.367,67.87 L503.367,73 L477.432,73 L477.432,68.44 L493.734,48.661 L478.572,48.661 L478.572,43.531 Z M521.607,73.798 C519.250988,73.798 517.151509,73.4085039 515.3085,72.6295 C513.465491,71.8504961 511.907506,70.7770068 510.6345,69.409 C509.361494,68.0409932 508.392503,66.4070095 507.7275,64.507 C507.062497,62.6069905 506.73,60.5170114 506.73,58.237 C506.73,55.9949888 507.062497,53.9240095 507.7275,52.024 C508.392503,50.1239905 509.361494,48.4900068 510.6345,47.122 C511.907506,45.7539932 513.465491,44.6805039 515.3085,43.9015 C517.151509,43.1224961 519.250988,42.733 521.607,42.733 C523.963012,42.733 526.062491,43.1224961 527.9055,43.9015 C529.748509,44.6805039 531.306494,45.7539932 532.5795,47.122 C533.852506,48.4900068 534.821497,50.1239905 535.4865,52.024 C536.151503,53.9240095 536.484,55.9949888 536.484,58.237 C536.484,60.5170114 536.151503,62.6069905 535.4865,64.507 C534.821497,66.4070095 533.852506,68.0409932 532.5795,69.409 C531.306494,70.7770068 529.748509,71.8504961 527.9055,72.6295 C526.062491,73.4085039 523.963012,73.798 521.607,73.798 Z M521.607,68.668 C523.051007,68.668 524.304995,68.364003 525.369,67.756 C526.433005,67.147997 527.306997,66.3500049 527.991,65.362 C528.675003,64.3739951 529.178498,63.2625062 529.5015,62.0275 C529.824502,60.7924938 529.986,59.5290065 529.986,58.237 C529.986,56.9829937 529.824502,55.7290063 529.5015,54.475 C529.178498,53.2209937 528.675003,52.1095048 527.991,51.1405 C527.306997,50.1714952 526.433005,49.383003 525.369,48.775 C524.304995,48.166997 523.051007,47.863 521.607,47.863 C520.162993,47.863 518.909005,48.166997 517.845,48.775 C516.780995,49.383003 515.907003,50.1714952 515.223,51.1405 C514.538997,52.1095048 514.035502,53.2209937 513.7125,54.475 C513.389498,55.7290063 513.228,56.9829937 513.228,58.237 C513.228,59.5290065 513.389498,60.7924938 513.7125,62.0275 C514.035502,63.2625062 514.538997,64.3739951 515.223,65.362 C515.907003,66.3500049 516.780995,67.147997 517.845,67.756 C518.909005,68.364003 520.162993,68.668 521.607,68.668 Z M541.899,43.531 L548.055,43.531 L548.055,47.863 L548.169,47.977 C549.157005,46.3429918 550.448992,45.0605047 552.045,44.1295 C553.641008,43.1984953 555.40799,42.733 557.346,42.733 C560.576016,42.733 563.121991,43.5689916 564.984,45.241 C566.846009,46.9130084 567.777,49.4209833 567.777,52.765 L567.777,73 L561.279,73 L561.279,54.475 C561.203,52.1569884 560.709005,50.4755052 559.797,49.4305 C558.884995,48.3854948 557.46001,47.863 555.522,47.863 C554.419994,47.863 553.432004,48.062498 552.558,48.4615 C551.683996,48.860502 550.943003,49.4114965 550.335,50.1145 C549.726997,50.8175035 549.252002,51.6439952 548.91,52.594 C548.567998,53.5440047 548.397,54.5509947 548.397,55.615 L548.397,73 L541.899,73 L541.899,43.531 Z1 Z"
             id="Pay-With-Amazon"
             type="MSShapeGroup" />
        </g>
      </g>
    </svg>
  </svg>
</svg>
