<?xml version="1.0" encoding="UTF-8" standalone="no"?>
<svg
   xmlns:dc="http://purl.org/dc/elements/1.1/"
   xmlns:cc="http://creativecommons.org/ns#"
   xmlns:rdf="http://www.w3.org/1999/02/22-rdf-syntax-ns#"
   xmlns:svg="http://www.w3.org/2000/svg"
   xmlns="http://www.w3.org/2000/svg"
   viewBox="0 0 502.00 100.00"
   height="100%"
   width="100%"
   id="svg2"
   version="1.1">
  <metadata
     id="metadata7">
    <rdf:RDF>
      <cc:Work
         rdf:about="">
        <dc:format>image/svg+xml</dc:format>
        <dc:type
           rdf:resource="http://purl.org/dc/dcmitype/StillImage" />
        <dc:title></dc:title>
      </cc:Work>
    </rdf:RDF>
  </metadata>
  <svg
     version="1.1"
     id="svg3407"
     x="13.40%"
     y="17.67%">
    <g
       id="g3409"
       stroke="none"
       stroke-width="1"
       fill-rule="evenodd"
       type="MSPage"
       transform="scale(3.0485619990570485)"
       fill="#000000">
      <g
         id="g3411"
         type="MSLayerGroup">
        <g
           id="g3413"
           type="MSShapeGroup">
          <g
             id="g3415">
            <path
               d="M18.0205355,17.7001083 C15.8375936,19.8531453 12.6735141,21 9.94880581,21 C6.12995073,21 2.69159865,19.1113744 0.0889082165,15.9706025 C-0.116327928,15.7235978 0.0655393031,15.3870055 0.312161615,15.578006 C3.1200882,17.7621669 6.59251251,19.0772232 10.1775893,19.0772232 C12.5973421,19.0772232 15.2564034,18.408201 17.7033605,17.0179364 C18.072625,16.8084885 18.3826645,17.344974 18.0205355,17.7001083"
               id="path3417"
               fill="#FF9900"/>
            <path
               d="M19.2496138,16.3784711 C18.9033645,15.9727011 16.9612157,16.1863688 16.0881456,16.2816746 C15.8241916,16.3108924 15.7817937,16.1004048 16.0208525,15.9472597 C17.5704405,14.9519654 20.1097472,15.2385783 20.4054452,15.5724963 C20.7027739,15.9076069 20.3271722,18.2354925 18.874447,19.3461675 C18.6516951,19.5173005 18.439597,19.425473 18.5380905,19.1997802 C18.8650977,18.4552225 19.5965154,16.7842411 19.2496138,16.3784711"
               id="path3419"
               fill="#FF9900"/>
            <path
               d="M14.9183645,15.2944706 C14.7291152,15.4566817 14.4559166,15.4672362 14.2454983,15.3577113 C13.2961629,14.6084259 13.1284461,14.261251 12.6083058,13.5473493 C11.042979,15.066337 9.93455785,15.5217391 7.90660145,15.5217391 C5.50487092,15.5217391 3.63636364,14.1115843 3.63636364,11.2887656 C3.63636364,9.08373326 4.89160514,7.58542207 6.6784345,6.85084385 C8.2262265,6.20277819 10.388102,6.08486156 12.0416482,5.90976012 L12.0416482,5.55713489 C12.0416482,4.90950179 12.0957065,4.14542278 11.6958572,3.58534041 C11.3486125,3.08728755 10.681561,2.88095507 10.0940069,2.88095507 C9.00648229,2.88095507 8.03906686,3.41214225 7.80166486,4.51128444 C7.75251275,4.7567206 7.56453543,4.99878277 7.30541927,5.01124058 L4.54190736,4.72557607 C4.3087755,4.67695601 4.0475697,4.49709638 4.11561949,4.15865921 C4.75187139,0.964182585 7.78058669,0 10.4944014,0 C11.8819266,0 13.696103,0.35219267 14.789079,1.35297007 C16.1767859,2.58707187 16.0450473,4.23383863 16.0450473,6.02655209 L16.0450473,10.2582279 C16.0450473,11.5314334 16.6008932,12.0892664 17.1210335,12.7749651 C17.3050132,13.0219584 17.3438988,13.3169663 17.1124023,13.4967394 C16.5289367,13.9615715 15.4932898,14.8178729 14.9259054,15.3003535 L14.9183645,15.2944706 Z M12.1816051,8.78803298 C12.1816051,9.81572532 12.2100293,10.6702186 11.6098116,11.5833964 C11.1248483,12.3268174 10.351652,12.7826087 9.49542198,12.7826087 C8.32185346,12.7826087 7.63636329,12.0114826 7.63636329,10.8712907 C7.63636329,8.62558019 9.97220853,8.2173913 12.1816051,8.2173913 L12.1816051,8.78803298 Z"
               id="path3421" />
          </g>
        </g>
      </g>
    </g>
  </svg>
  <svg
     version="1.1"
     id="svg3423"
     x="29.97%"
     y="33.00%">
    <svg
       id="svg3425"
       width="277.86px"
       height="34.00px"
       viewBox="0 0 277.86 34.00"
       version="1.1">
      <g
         id="g3427"
         stroke="none"
         stroke-width="1"
         fill="none"
         fill-rule="evenodd"
         type="MSPage">
        <g
           id="g3429"
           type="MSArtboardGroup"
           transform="translate(0, -4.586206896551726) scale(0.5862068965517242)"
           fill="#000000">
          <path
             d="M4.332,15.302 L22.287,15.302 C25.1750144,15.302 27.5309909,15.7199958 29.355,16.556 C31.1790091,17.3920042 32.5849951,18.4369937 33.573,19.691 C34.5610049,20.9450063 35.2354982,22.3129926 35.5965,23.795 C35.9575018,25.2770074 36.138,26.6449937 36.138,27.899 C36.138,29.1530063 35.9575018,30.5114927 35.5965,31.9745 C35.2354982,33.4375073 34.5610049,34.7959937 33.573,36.05 C32.5849951,37.3040063 31.1790091,38.3394959 29.355,39.1565 C27.5309909,39.9735041 25.1750144,40.382 22.287,40.382 L11.457,40.382 L11.457,56 L4.332,56 L4.332,15.302 Z M11.457,34.568 L21.888,34.568 C22.686004,34.568 23.5029958,34.4540011 24.339,34.226 C25.1750042,33.9979989 25.9444965,33.6275026 26.6475,33.1145 C27.3505035,32.6014974 27.9204978,31.9175043 28.3575,31.0625 C28.7945022,30.2074957 29.013,29.1340065 29.013,27.842 C29.013,26.5119933 28.8230019,25.4100044 28.443,24.536 C28.0629981,23.6619956 27.5500032,22.9685026 26.904,22.4555 C26.2579968,21.9424974 25.5170042,21.5910009 24.681,21.401 C23.8449958,21.210999 22.9520048,21.116 22.002,21.116 L11.457,21.116 L11.457,34.568 Z M66.12,49.445 C66.12,50.243004 66.224499,50.8129983 66.4335,51.155 C66.642501,51.4970017 67.050997,51.668 67.659,51.668 L68.343,51.668 C68.6090013,51.668 68.9129983,51.6300004 69.255,51.554 L69.255,56.057 C69.0269989,56.1330004 68.7325018,56.2184995 68.3715,56.3135 C68.0104982,56.4085005 67.6400019,56.4939996 67.26,56.57 C66.8799981,56.6460004 66.5000019,56.7029998 66.12,56.741 C65.7399981,56.7790002 65.4170013,56.798 65.151,56.798 C63.8209934,56.798 62.7190044,56.5320027 61.845,56 C60.9709956,55.4679973 60.4010013,54.5370067 60.135,53.207 C58.8429935,54.4610063 57.2565094,55.3729972 55.3755,55.943 C53.4944906,56.5130028 51.6800087,56.798 49.932,56.798 C48.6019934,56.798 47.3290061,56.6175018 46.113,56.2565 C44.8969939,55.8954982 43.8235047,55.3635035 42.8925,54.6605 C41.9614953,53.9574965 41.2205028,53.0645054 40.6695,51.9815 C40.1184972,50.8984946 39.843,49.6350072 39.843,48.191 C39.843,46.3669909 40.1754967,44.8850057 40.8405,43.745 C41.5055033,42.6049943 42.3794946,41.7120032 43.4625,41.066 C44.5455054,40.4199968 45.7614933,39.9545014 47.1105,39.6695 C48.4595067,39.3844986 49.8179932,39.1660008 51.186,39.014 C52.3640059,38.7859989 53.4849947,38.6245005 54.549,38.5295 C55.6130053,38.4344995 56.5534959,38.2730011 57.3705,38.045 C58.1875041,37.8169989 58.8334976,37.4655024 59.3085,36.9905 C59.7835024,36.5154976 60.021,35.8030047 60.021,34.853 C60.021,34.0169958 59.821502,33.3330027 59.4225,32.801 C59.023498,32.2689973 58.5295029,31.8605014 57.9405,31.5755 C57.3514971,31.2904986 56.6960036,31.1005005 55.974,31.0055 C55.2519964,30.9104995 54.5680032,30.863 53.922,30.863 C52.0979909,30.863 50.5970059,31.2429962 49.419,32.003 C48.2409941,32.7630038 47.5760008,33.940992 47.424,35.537 L40.926,35.537 C41.0400006,33.6369905 41.495996,32.0600063 42.294,30.806 C43.092004,29.5519937 44.1084938,28.5450038 45.3435,27.785 C46.5785062,27.0249962 47.9749922,26.4930015 49.533,26.189 C51.0910078,25.8849985 52.6869918,25.733 54.321,25.733 C55.7650072,25.733 57.189993,25.8849985 58.596,26.189 C60.002007,26.4930015 61.2654944,26.9869966 62.3865,27.671 C63.5075056,28.3550034 64.4099966,29.2384946 65.094,30.3215 C65.7780034,31.4045054 66.12,32.7249922 66.12,34.283 L66.12,49.445 Z M59.622,41.237 C58.6339951,41.8830032 57.4180072,42.2724993 55.974,42.4055 C54.5299928,42.5385007 53.0860072,42.7379987 51.642,43.004 C50.9579966,43.1180006 50.2930032,43.279499 49.647,43.4885 C49.0009968,43.697501 48.4310025,43.9824982 47.937,44.3435 C47.4429975,44.7045018 47.0535014,45.1794971 46.7685,45.7685 C46.4834986,46.3575029 46.341,47.0699958 46.341,47.906 C46.341,48.6280036 46.5499979,49.2359975 46.968,49.73 C47.3860021,50.2240025 47.8894971,50.6134986 48.4785,50.8985 C49.0675029,51.1835014 49.7134965,51.3829994 50.4165,51.497 C51.1195035,51.6110006 51.7559971,51.668 52.326,51.668 C53.0480036,51.668 53.8269958,51.5730009 54.663,51.383 C55.4990042,51.192999 56.2874963,50.8700023 57.0285,50.414 C57.7695037,49.9579977 58.3869975,49.3785035 58.881,48.6755 C59.3750025,47.9724965 59.622,47.1080051 59.622,46.082 L59.622,41.237 Z M69.882,26.531 L77.007,26.531 L84.702,48.533 L84.816,48.533 L92.283,26.531 L99.066,26.531 L87.609,57.596 C87.0769973,58.9260067 86.5545026,60.1989939 86.0415,61.415 C85.5284974,62.6310061 84.9015037,63.7044953 84.1605,64.6355 C83.4194963,65.5665047 82.4980055,66.3074972 81.396,66.8585 C80.2939945,67.4095028 78.8880086,67.685 77.178,67.685 C75.6579924,67.685 74.1570074,67.5710011 72.675,67.343 L72.675,61.871 C73.2070027,61.9470004 73.7199975,62.0324995 74.214,62.1275 C74.7080025,62.2225005 75.2209973,62.27 75.753,62.27 C76.5130038,62.27 77.1399975,62.175001 77.634,61.985 C78.1280025,61.7949991 78.5364984,61.5195018 78.8595,61.1585 C79.1825016,60.7974982 79.4579989,60.3700025 79.686,59.876 C79.9140011,59.3819975 80.1229991,58.8120032 80.313,58.166 L81.054,55.886 L69.882,26.531 Z M115.881,26.531 L122.778,26.531 L128.535,48.533 L128.649,48.533 L134.178,26.531 L140.733,26.531 L146.034,48.533 L146.148,48.533 L152.133,26.531 L158.745,26.531 L149.511,56 L142.842,56 L137.37,34.112 L137.256,34.112 L131.841,56 L125.001,56 L115.881,26.531 Z M163.077,15.302 L169.575,15.302 L169.575,21.458 L163.077,21.458 L163.077,15.302 Z M163.077,26.531 L169.575,26.531 L169.575,56 L163.077,56 L163.077,26.531 Z M173.679,26.531 L178.581,26.531 L178.581,17.696 L185.079,17.696 L185.079,26.531 L190.95,26.531 L190.95,31.376 L185.079,31.376 L185.079,47.108 C185.079,47.7920034 185.1075,48.3809975 185.1645,48.875 C185.2215,49.3690025 185.354499,49.7869983 185.5635,50.129 C185.772501,50.4710017 186.085998,50.7274991 186.504,50.8985 C186.922002,51.0695009 187.491996,51.155 188.214,51.155 C188.670002,51.155 189.125998,51.1455001 189.582,51.1265 C190.038002,51.1074999 190.493998,51.0410006 190.95,50.927 L190.95,55.943 C190.227996,56.0190004 189.525003,56.0949996 188.841,56.171 C188.156997,56.2470004 187.454004,56.285 186.732,56.285 C185.021991,56.285 183.644505,56.1235016 182.5995,55.8005 C181.554495,55.4774984 180.737503,55.0025031 180.1485,54.3755 C179.559497,53.7484969 179.160501,52.9600047 178.9515,52.01 C178.742499,51.0599953 178.619,49.9770061 178.581,48.761 L178.581,31.376 L173.679,31.376 L173.679,26.531 Z M195.624,15.302 L202.122,15.302 L202.122,30.407 L202.236,30.407 C203.034004,29.0769933 204.221492,27.9655045 205.7985,27.0725 C207.375508,26.1794955 209.13299,25.733 211.071,25.733 C214.301016,25.733 216.846991,26.5689916 218.709,28.241 C220.571009,29.9130084 221.502,32.4209833 221.502,35.765 L221.502,56 L215.004,56 L215.004,37.475 C214.928,35.1569884 214.434005,33.4755052 213.522,32.4305 C212.609995,31.3854948 211.18501,30.863 209.247,30.863 C208.144994,30.863 207.157004,31.062498 206.283,31.4615 C205.408996,31.860502 204.668003,32.4114965 204.06,33.1145 C203.451997,33.8175035 202.977002,34.6439952 202.635,35.594 C202.292998,36.5440047 202.122,37.5509947 202.122,38.615 L202.122,56 L195.624,56 L195.624,15.302 Z M255.987,15.302 L263.568,15.302 L279.243,56 L271.605,56 L267.786,45.227 L251.541,45.227 L247.722,56 L240.369,56 L255.987,15.302 Z M253.479,39.812 L265.905,39.812 L259.806,22.313 L259.635,22.313 L253.479,39.812 Z M282.207,26.531 L288.363,26.531 L288.363,30.635 L288.534,30.635 C289.028002,29.9129964 289.559997,29.248003 290.13,28.64 C290.700003,28.031997 291.336496,27.5190021 292.0395,27.101 C292.742504,26.6829979 293.549995,26.3505012 294.462,26.1035 C295.374005,25.8564988 296.418994,25.733 297.597,25.733 C299.383009,25.733 301.045492,26.131996 302.5845,26.93 C304.123508,27.728004 305.215997,28.9629916 305.862,30.635 C306.964006,29.1149924 308.236993,27.9180044 309.681,27.044 C311.125007,26.1699956 312.929989,25.733 315.096,25.733 C318.212016,25.733 320.634491,26.4929924 322.3635,28.013 C324.092509,29.5330076 324.957,32.0789821 324.957,35.651 L324.957,56 L318.459,56 L318.459,38.786 C318.459,37.6079941 318.421,36.5345048 318.345,35.5655 C318.269,34.5964952 318.050502,33.7605035 317.6895,33.0575 C317.328498,32.3544965 316.787004,31.8130019 316.065,31.433 C315.342996,31.0529981 314.355006,30.863 313.101,30.863 C310.896989,30.863 309.301005,31.5469932 308.313,32.915 C307.324995,34.2830068 306.831,36.2209875 306.831,38.729 L306.831,56 L300.333,56 L300.333,37.076 C300.333,35.0239897 299.962504,33.4755052 299.2215,32.4305 C298.480496,31.3854948 297.12201,30.863 295.146,30.863 C294.309996,30.863 293.502504,31.0339983 292.7235,31.376 C291.944496,31.7180017 291.260503,32.2119968 290.6715,32.858 C290.082497,33.5040032 289.607502,34.3019952 289.2465,35.252 C288.885498,36.2020048 288.705,37.2849939 288.705,38.501 L288.705,56 L282.207,56 L282.207,26.531 Z M356.478,49.445 C356.478,50.243004 356.582499,50.8129983 356.7915,51.155 C357.000501,51.4970017 357.408997,51.668 358.017,51.668 L358.701,51.668 C358.967001,51.668 359.270998,51.6300004 359.613,51.554 L359.613,56.057 C359.384999,56.1330004 359.090502,56.2184995 358.7295,56.3135 C358.368498,56.4085005 357.998002,56.4939996 357.618,56.57 C357.237998,56.6460004 356.858002,56.7029998 356.478,56.741 C356.097998,56.7790002 355.775001,56.798 355.509,56.798 C354.178993,56.798 353.077004,56.5320027 352.203,56 C351.328996,55.4679973 350.759001,54.5370067 350.493,53.207 C349.200994,54.4610063 347.614509,55.3729972 345.7335,55.943 C343.852491,56.5130028 342.038009,56.798 340.29,56.798 C338.959993,56.798 337.687006,56.6175018 336.471,56.2565 C335.254994,55.8954982 334.181505,55.3635035 333.2505,54.6605 C332.319495,53.9574965 331.578503,53.0645054 331.0275,51.9815 C330.476497,50.8984946 330.201,49.6350072 330.201,48.191 C330.201,46.3669909 330.533497,44.8850057 331.1985,43.745 C331.863503,42.6049943 332.737495,41.7120032 333.8205,41.066 C334.903505,40.4199968 336.119493,39.9545014 337.4685,39.6695 C338.817507,39.3844986 340.175993,39.1660008 341.544,39.014 C342.722006,38.7859989 343.842995,38.6245005 344.907,38.5295 C345.971005,38.4344995 346.911496,38.2730011 347.7285,38.045 C348.545504,37.8169989 349.191498,37.4655024 349.6665,36.9905 C350.141502,36.5154976 350.379,35.8030047 350.379,34.853 C350.379,34.0169958 350.179502,33.3330027 349.7805,32.801 C349.381498,32.2689973 348.887503,31.8605014 348.2985,31.5755 C347.709497,31.2904986 347.054004,31.1005005 346.332,31.0055 C345.609996,30.9104995 344.926003,30.863 344.28,30.863 C342.455991,30.863 340.955006,31.2429962 339.777,32.003 C338.598994,32.7630038 337.934001,33.940992 337.782,35.537 L331.284,35.537 C331.398001,33.6369905 331.853996,32.0600063 332.652,30.806 C333.450004,29.5519937 334.466494,28.5450038 335.7015,27.785 C336.936506,27.0249962 338.332992,26.4930015 339.891,26.189 C341.449008,25.8849985 343.044992,25.733 344.679,25.733 C346.123007,25.733 347.547993,25.8849985 348.954,26.189 C350.360007,26.4930015 351.623494,26.9869966 352.7445,27.671 C353.865506,28.3550034 354.767997,29.2384946 355.452,30.3215 C356.136003,31.4045054 356.478,32.7249922 356.478,34.283 L356.478,49.445 Z M349.98,41.237 C348.991995,41.8830032 347.776007,42.2724993 346.332,42.4055 C344.887993,42.5385007 343.444007,42.7379987 342,43.004 C341.315997,43.1180006 340.651003,43.279499 340.005,43.4885 C339.358997,43.697501 338.789002,43.9824982 338.295,44.3435 C337.800998,44.7045018 337.411501,45.1794971 337.1265,45.7685 C336.841499,46.3575029 336.699,47.0699958 336.699,47.906 C336.699,48.6280036 336.907998,49.2359975 337.326,49.73 C337.744002,50.2240025 338.247497,50.6134986 338.8365,50.8985 C339.425503,51.1835014 340.071496,51.3829994 340.7745,51.497 C341.477504,51.6110006 342.113997,51.668 342.684,51.668 C343.406004,51.668 344.184996,51.5730009 345.021,51.383 C345.857004,51.192999 346.645496,50.8700023 347.3865,50.414 C348.127504,49.9579977 348.744998,49.3785035 349.239,48.6755 C349.733002,47.9724965 349.98,47.1080051 349.98,46.082 L349.98,41.237 Z M362.463,26.531 L386.403,26.531 L386.403,31.091 L369.531,50.87 L387.258,50.87 L387.258,56 L361.323,56 L361.323,51.44 L377.625,31.661 L362.463,31.661 L362.463,26.531 Z M405.498,56.798 C403.141988,56.798 401.042509,56.4085039 399.1995,55.6295 C397.356491,54.8504961 395.798506,53.7770068 394.5255,52.409 C393.252494,51.0409932 392.283503,49.4070095 391.6185,47.507 C390.953497,45.6069905 390.621,43.5170114 390.621,41.237 C390.621,38.9949888 390.953497,36.9240095 391.6185,35.024 C392.283503,33.1239905 393.252494,31.4900068 394.5255,30.122 C395.798506,28.7539932 397.356491,27.6805039 399.1995,26.9015 C401.042509,26.1224961 403.141988,25.733 405.498,25.733 C407.854012,25.733 409.953491,26.1224961 411.7965,26.9015 C413.639509,27.6805039 415.197494,28.7539932 416.4705,30.122 C417.743506,31.4900068 418.712497,33.1239905 419.3775,35.024 C420.042503,36.9240095 420.375,38.9949888 420.375,41.237 C420.375,43.5170114 420.042503,45.6069905 419.3775,47.507 C418.712497,49.4070095 417.743506,51.0409932 416.4705,52.409 C415.197494,53.7770068 413.639509,54.8504961 411.7965,55.6295 C409.953491,56.4085039 407.854012,56.798 405.498,56.798 Z M405.498,51.668 C406.942007,51.668 408.195995,51.364003 409.26,50.756 C410.324005,50.147997 411.197997,49.3500049 411.882,48.362 C412.566003,47.3739951 413.069498,46.2625062 413.3925,45.0275 C413.715502,43.7924938 413.877,42.5290065 413.877,41.237 C413.877,39.9829937 413.715502,38.7290063 413.3925,37.475 C413.069498,36.2209937 412.566003,35.1095048 411.882,34.1405 C411.197997,33.1714952 410.324005,32.383003 409.26,31.775 C408.195995,31.166997 406.942007,30.863 405.498,30.863 C404.053993,30.863 402.800005,31.166997 401.736,31.775 C400.671995,32.383003 399.798003,33.1714952 399.114,34.1405 C398.429997,35.1095048 397.926502,36.2209937 397.6035,37.475 C397.280498,38.7290063 397.119,39.9829937 397.119,41.237 C397.119,42.5290065 397.280498,43.7924938 397.6035,45.0275 C397.926502,46.2625062 398.429997,47.3739951 399.114,48.362 C399.798003,49.3500049 400.671995,50.147997 401.736,50.756 C402.800005,51.364003 404.053993,51.668 405.498,51.668 Z M425.79,26.531 L431.946,26.531 L431.946,30.863 L432.06,30.977 C433.048005,29.3429918 434.339992,28.0605047 435.936,27.1295 C437.532008,26.1984953 439.29899,25.733 441.237,25.733 C444.467016,25.733 447.012991,26.5689916 448.875,28.241 C450.737009,29.9130084 451.668,32.4209833 451.668,35.765 L451.668,56 L445.17,56 L445.17,37.475 C445.094,35.1569884 444.600005,33.4755052 443.688,32.4305 C442.775995,31.3854948 441.35101,30.863 439.413,30.863 C438.310994,30.863 437.323004,31.062498 436.449,31.4615 C435.574996,31.860502 434.834003,32.4114965 434.226,33.1145 C433.617997,33.8175035 433.143002,34.6439952 432.801,35.594 C432.458998,36.5440047 432.288,37.5509947 432.288,38.615 L432.288,56 L425.79,56 L425.79,26.531 Z"
             id="Pay-With-Amazon"
             type="MSShapeGroup" />
        </g>
      </g>
    </svg>
  </svg>
</svg>
