<?xml version="1.0" encoding="UTF-8" standalone="no"?>
<svg width="370px" height="57px" viewBox="0 0 370 57" version="1.1" xmlns="http://www.w3.org/2000/svg" xmlns:xlink="http://www.w3.org/1999/xlink">
    <!-- Generator: Sketch 41 (35326) - http://www.bohemiancoding.com/sketch -->
    <title>pwa-logo-fr</title>
    <desc>Created with Sketch.</desc>
    <defs></defs>
    <g id="PWA-Logos" stroke="none" stroke-width="1" fill="none" fill-rule="evenodd">
        <g id="pwa-logo-fr">
            <text id="Payer-avec-Amazon" font-family="ArialMT, Arial" font-size="33" font-weight="normal" letter-spacing="-0.5" fill="#202221">
                <tspan x="85" y="35.5">Payer avec Amazon</tspan>
            </text>
            <g id="a_smile" fill="#000000">
                <path d="M48.1159664,47.3186618 C42.2873738,53.0744927 33.839082,56.1404417 26.563939,56.1404417 C16.3673551,56.1404417 7.18673816,51.0914762 0.237390546,42.69508 C-0.310602905,42.0347489 0.174994073,41.1349184 0.833491201,41.6455304 C8.33083229,47.4845665 17.6024242,51.000178 27.1748054,51.000178 C33.635698,51.000178 40.7355594,49.2116446 47.2690891,45.4949746 C48.2550487,44.9350462 49.0828737,46.369262 48.1159664,47.3186618" id="path3417"></path>
                <path d="M51.397683,43.7854573 C50.4731755,42.7006903 45.2875157,43.2718997 42.9563635,43.5266859 C42.2515897,43.6047955 42.1383846,43.0420875 42.7766867,42.6326764 C46.9141844,39.971902 53.6942934,40.7381199 54.4838257,41.630801 C55.2777121,42.5266704 54.2748319,48.7499335 50.395964,51.7191614 C49.8012023,52.1766606 49.234887,51.9311731 49.4978709,51.3278163 C50.3710007,49.3373497 52.3239321,44.8702243 51.397683,43.7854573" id="path3419"></path>
                <path d="M39.8329742,40.8875398 C39.3276666,41.3211875 38.5982091,41.3494035 38.036379,41.0566046 C35.5015936,39.0534992 35.0537791,38.1253777 33.6649717,36.2168654 C29.4854504,40.2776578 26.5258961,41.495109 21.1111246,41.495109 C14.6983526,41.495109 9.70932028,37.7252655 9.70932028,30.1788708 C9.70932028,24.284038 13.0608943,20.2785212 17.8318413,18.3147333 C21.9645436,16.5822242 27.7368876,16.2669912 32.1519602,15.798883 L32.1519602,14.8561908 C32.1519602,13.1248381 32.2962993,11.0821841 31.2286764,9.58488545 C30.3015112,8.25341366 28.5204416,7.70181382 26.9516351,7.70181382 C24.0478758,7.70181382 21.4648156,9.12186539 20.8309373,12.060262 C20.699698,12.7163998 20.1977867,13.3635178 19.5059302,13.3968219 L12.1271791,12.6331394 C11.5047024,12.5031608 10.8072664,12.0223323 10.9889636,11.1175698 C12.6877963,2.57760173 20.7746572,7.10542736e-15 28.0207137,7.10542736e-15 C31.7254935,7.10542736e-15 36.5694589,0.941535813 39.4877737,3.61696845 C43.1930387,6.91615989 42.8412883,11.318551 42.8412883,16.1111094 L42.8412883,27.4238784 C42.8412883,30.8276079 44.3254319,32.3188931 45.7142393,34.1520088 C46.2054767,34.8123094 46.3093037,35.60097 45.6911935,36.0815672 C44.1333035,37.3242282 41.368061,39.6134252 39.8531088,40.9032669 L39.8329742,40.8875398 Z M32.525654,23.4935264 C32.525654,26.2409122 32.6015484,28.5252755 30.9989292,30.9665234 C29.7040466,32.9539511 27.6395638,34.1724428 25.3533756,34.1724428 C22.2198736,34.1724428 20.3895716,32.1109495 20.3895716,29.0628125 C20.3895716,23.0592325 26.6264258,21.9679989 32.525654,21.9679989 L32.525654,23.4935264 Z" id="path3421"></path>
            </g>
        </g>
    </g>
</svg>